<svg width="20" height="24" viewBox="0 0 20 24" fill="none" xmlns="http://www.w3.org/2000/svg">
<path fill-rule="evenodd" clip-rule="evenodd" d="M4.54492 10.0606C4.24189 10.0606 3.93886 10.1818 3.69644 10.4242C3.21159 10.9091 3.21159 11.697 3.57522 12.1818L9.27219 17.8182C9.69644 18.303 10.4843 18.303 10.9692 17.8182L16.6661 12.1818C17.151 11.697 17.0904 10.9697 16.6661 10.4848C16.2419 10 15.454 10 14.9692 10.4848L11.3934 14.0606V1.21212C11.3934 0.545455 10.848 0 10.1813 0C9.51462 0 8.96916 0.545455 8.96916 1.21212V14L5.39341 10.4242C5.15098 10.1818 4.84795 10.0606 4.54492 10.0606ZM18.7267 20.6061H1.75704C1.09038 20.6061 0.544922 21.1515 0.544922 21.8182C0.544922 22.4848 1.09038 23.0303 1.75704 23.0303H18.7267C19.3934 23.0303 19.9389 22.4848 19.9389 21.8182C19.9389 21.1515 19.3934 20.6061 18.7267 20.6061Z" fill="white"/>
</svg>
