<svg width="79" height="79" viewBox="0 0 79 79" fill="none" xmlns="http://www.w3.org/2000/svg">
<mask id="mask0" mask-type="alpha" maskUnits="userSpaceOnUse" x="0" y="0" width="79" height="79">
<path fill-rule="evenodd" clip-rule="evenodd" d="M39.0323 78.0645C17.4753 78.0645 0 60.5892 0 39.0323C0 17.4753 17.4753 0 39.0323 0C60.5892 0 78.0645 17.4753 78.0645 39.0323C78.0645 60.5892 60.5892 78.0645 39.0323 78.0645ZM39.0323 73.9559C58.32 73.9559 73.9559 58.32 73.9559 39.0323C73.9559 19.7445 58.32 4.10866 39.0323 4.10866C19.7445 4.10866 4.10866 19.7445 4.10866 39.0323C4.10866 58.32 19.7445 73.9559 39.0323 73.9559ZM60.5659 39.6387C61.2133 39.2503 61.2133 38.3121 60.5659 37.9237L30.6403 19.9683C29.9738 19.5684 29.1258 20.0485 29.1258 20.8258V56.7365C29.1258 57.5138 29.9738 57.994 30.6403 57.594L60.5659 39.6387Z" fill="white"/>
</mask>
<g mask="url(#mask0)">
<rect x="-6.16211" y="-6.16296" width="90.3905" height="90.3905" fill="#0073D1"/>
</g>
</svg>
