<svg width="100" height="100" viewBox="0 0 100 100" fill="none" xmlns="http://www.w3.org/2000/svg">
<path fill-rule="evenodd" clip-rule="evenodd" d="M73.5188 13.5208V23.9374C76.7595 23.9374 79.4447 26.4548 79.3521 29.493V82.2708C79.3521 85.3958 76.667 87.9131 73.3336 87.9131H57.8707H32.5929H26.5744V82.2708V77.5833C23.241 77.4964 20.6484 74.9791 20.6484 71.9409V19.1631C20.6484 16.0381 23.3336 13.5208 26.667 13.5208H73.5188ZM26.5744 29.493V25.0659V23.9374L64.9077 15.4305H28.7966H26.7595C24.3521 15.4305 22.4077 17.2534 22.4077 19.5103V71.5937C22.4077 73.8506 24.2595 75.5867 26.5744 75.6735V29.493ZM71.4818 15.9513V23.9374H57.8707H35.5558L71.4818 15.9513ZM73.3336 86.0902C75.741 86.0902 77.6855 84.2673 77.6855 82.0103H77.5929V29.8402C77.5929 27.5833 75.6484 25.7603 73.241 25.7603H71.204H28.3336V29.8402V82.0103V86.0902H32.6855H73.3336Z" fill="#004E8F"/>
<path d="M73.5188 23.9374H73.0188V24.4374H73.5188V23.9374ZM73.5188 13.5208H74.0188V13.0208H73.5188V13.5208ZM79.3521 29.493L78.8524 29.4777L78.8521 29.4854V29.493H79.3521ZM26.5744 87.9131H26.0744V88.4131H26.5744V87.9131ZM26.5744 77.5833H27.0744V77.0961L26.5874 77.0834L26.5744 77.5833ZM26.5744 23.9374L26.466 23.4493L26.0744 23.5362V23.9374H26.5744ZM64.9077 15.4305L65.016 15.9186L64.9077 14.9305V15.4305ZM26.5744 75.6735L26.5556 76.1732L27.0744 76.1926V75.6735H26.5744ZM71.4818 23.9374V24.4374H71.9818V23.9374H71.4818ZM71.4818 15.9513H71.9818V15.328L71.3733 15.4632L71.4818 15.9513ZM35.5558 23.9374L35.4473 23.4493L35.5558 24.4374V23.9374ZM77.6855 82.0103H78.1855V81.5103H77.6855V82.0103ZM77.5929 82.0103H77.0929V82.5103H77.5929V82.0103ZM28.3336 25.7603V25.2603H27.8336V25.7603H28.3336ZM28.3336 86.0902H27.8336V86.5902H28.3336V86.0902ZM74.0188 23.9374V13.5208H73.0188V23.9374H74.0188ZM79.8519 29.5082C79.9543 26.1486 77.0006 23.4374 73.5188 23.4374V24.4374C76.5185 24.4374 78.9352 26.761 78.8524 29.4777L79.8519 29.5082ZM79.8521 82.2708V29.493H78.8521V82.2708H79.8521ZM73.3336 88.4131C76.9122 88.4131 79.8521 85.7018 79.8521 82.2708H78.8521C78.8521 85.0897 76.4217 87.4131 73.3336 87.4131V88.4131ZM57.8707 88.4131H73.3336V87.4131H57.8707V88.4131ZM32.5929 88.4131H57.8707V87.4131H32.5929V88.4131ZM26.5744 88.4131H32.5929V87.4131H26.5744V88.4131ZM26.0744 82.2708V87.9131H27.0744V82.2708H26.0744ZM26.0744 77.5833V82.2708H27.0744V77.5833H26.0744ZM20.1484 71.9409C20.1484 75.2817 22.9897 77.9901 26.5613 78.0831L26.5874 77.0834C23.4923 77.0028 21.1484 74.6764 21.1484 71.9409H20.1484ZM20.1484 19.1631V71.9409H21.1484V19.1631H20.1484ZM26.667 13.0208C23.0884 13.0208 20.1484 15.7321 20.1484 19.1631H21.1484C21.1484 16.3442 23.5789 14.0208 26.667 14.0208V13.0208ZM73.5188 13.0208H26.667V14.0208H73.5188V13.0208ZM26.0744 25.0659V29.493H27.0744V25.0659H26.0744ZM26.0744 23.9374V25.0659H27.0744V23.9374H26.0744ZM64.7994 14.9423L26.466 23.4493L26.6827 24.4255L65.016 15.9186L64.7994 14.9423ZM28.7966 15.9305H64.9077V14.9305H28.7966V15.9305ZM26.7595 15.9305H28.7966V14.9305H26.7595V15.9305ZM22.9077 19.5103C22.9077 17.5594 24.5974 15.9305 26.7595 15.9305V14.9305C24.1069 14.9305 21.9077 16.9473 21.9077 19.5103H22.9077ZM22.9077 71.5937V19.5103H21.9077V71.5937H22.9077ZM26.5931 75.1739C24.5132 75.0959 22.9077 73.5492 22.9077 71.5937H21.9077C21.9077 74.152 24.0059 76.0776 26.5556 76.1732L26.5931 75.1739ZM26.0744 29.493V75.6735H27.0744V29.493H26.0744ZM71.9818 23.9374V15.9513H70.9818V23.9374H71.9818ZM57.8707 24.4374H71.4818V23.4374H57.8707V24.4374ZM35.5558 24.4374H57.8707V23.4374H35.5558V24.4374ZM71.3733 15.4632L35.4473 23.4493L35.6643 24.4255L71.5903 16.4394L71.3733 15.4632ZM77.1855 82.0103C77.1855 83.9612 75.4958 85.5902 73.3336 85.5902V86.5902C75.9863 86.5902 78.1855 84.5733 78.1855 82.0103H77.1855ZM77.5929 82.5103H77.6855V81.5103H77.5929V82.5103ZM77.0929 29.8402V82.0103H78.0929V29.8402H77.0929ZM73.241 26.2603C75.4032 26.2603 77.0929 27.8893 77.0929 29.8402H78.0929C78.0929 27.2772 75.8937 25.2603 73.241 25.2603V26.2603ZM71.204 26.2603H73.241V25.2603H71.204V26.2603ZM28.3336 26.2603H71.204V25.2603H28.3336V26.2603ZM28.8336 29.8402V25.7603H27.8336V29.8402H28.8336ZM28.8336 82.0103V29.8402H27.8336V82.0103H28.8336ZM28.8336 86.0902V82.0103H27.8336V86.0902H28.8336ZM32.6855 85.5902H28.3336V86.5902H32.6855V85.5902ZM73.3336 85.5902H32.6855V86.5902H73.3336V85.5902Z" fill="#004E8F"/>
<path d="M67.7773 61.9583H38.6107C38.1477 61.9583 37.7773 62.3055 37.7773 62.7395C37.7773 63.1735 38.1477 63.5208 38.6107 63.5208H67.6848C68.1477 63.5208 68.5181 63.1735 68.5181 62.7395C68.5181 62.3055 68.1477 61.9583 67.7773 61.9583Z" fill="#18BCEE"/>
<path d="M67.7773 66.5588H38.6107C38.1477 66.5588 37.7773 66.9061 37.7773 67.3401C37.7773 67.7741 38.1477 68.1213 38.6107 68.1213H67.6848C68.1477 68.1213 68.5181 67.7741 68.5181 67.3401C68.5181 66.9061 68.1477 66.5588 67.7773 66.5588Z" fill="#18BCEE"/>
<path d="M49.2588 71.0728H38.6107C38.1477 71.0728 37.7773 71.42 37.7773 71.854C37.7773 72.288 38.1477 72.6353 38.6107 72.6353H49.2588C49.7218 72.6353 50.0922 72.288 50.0922 71.854C50.0922 71.42 49.7218 71.0728 49.2588 71.0728Z" fill="#18BCEE"/>
<path d="M49.2588 75.6736H38.6107C38.1477 75.6736 37.7773 76.0208 37.7773 76.4548C37.7773 76.8889 38.1477 77.2361 38.6107 77.2361H49.2588C49.7218 77.2361 50.0922 76.8889 50.0922 76.4548C50.0922 76.0208 49.7218 75.6736 49.2588 75.6736Z" fill="#18BCEE"/>
<path d="M67.7773 52.4097H38.6107C38.1477 52.4097 37.7773 52.7569 37.7773 53.1909C37.7773 53.6249 38.1477 53.9722 38.6107 53.9722H67.6848C68.1477 53.9722 68.5181 53.6249 68.5181 53.1909C68.5181 52.7569 68.1477 52.4097 67.7773 52.4097Z" fill="#18BCEE"/>
<path d="M67.7773 57.0103H38.6107C38.1477 57.0103 37.7773 57.3575 37.7773 57.7915C37.7773 58.2255 38.1477 58.5728 38.6107 58.5728H67.6848C68.1477 58.5728 68.5181 58.2255 68.5181 57.7915C68.5181 57.3575 68.1477 57.0103 67.7773 57.0103Z" fill="#18BCEE"/>
<path fill-rule="evenodd" clip-rule="evenodd" d="M68.5189 49.2846H37.6855V34.6145H68.5189V49.2846ZM67.4078 35.743H38.7041V48.243H67.4078V35.743Z" fill="#18BCEE"/>
<path d="M37.6855 49.2846H37.1855V49.7846H37.6855V49.2846ZM68.5189 49.2846V49.7846H69.0189V49.2846H68.5189ZM37.6855 34.6145V34.1145H37.1855V34.6145H37.6855ZM68.5189 34.6145H69.0189V34.1145H68.5189V34.6145ZM38.7041 35.743V35.243H38.2041V35.743H38.7041ZM67.4078 35.743H67.9078V35.243H67.4078V35.743ZM38.7041 48.243H38.2041V48.743H38.7041V48.243ZM67.4078 48.243V48.743H67.9078V48.243H67.4078ZM37.6855 49.7846H68.5189V48.7846H37.6855V49.7846ZM37.1855 34.6145V49.2846H38.1855V34.6145H37.1855ZM68.5189 34.1145H37.6855V35.1145H68.5189V34.1145ZM69.0189 49.2846V34.6145H68.0189V49.2846H69.0189ZM38.7041 36.243H67.4078V35.243H38.7041V36.243ZM39.2041 48.243V35.743H38.2041V48.243H39.2041ZM67.4078 47.743H38.7041V48.743H67.4078V47.743ZM66.9078 35.743V48.243H67.9078V35.743H66.9078Z" fill="#18BCEE"/>
<path fill-rule="evenodd" clip-rule="evenodd" d="M68.611 78.104H53.4258V70.2915H68.611V78.104ZM67.4073 71.3332H54.4443V77.0623H67.4073V71.3332Z" fill="#18BCEE"/>
<path d="M53.4258 78.104H52.9258V78.604H53.4258V78.104ZM68.611 78.104V78.604H69.111V78.104H68.611ZM53.4258 70.2915V69.7915H52.9258V70.2915H53.4258ZM68.611 70.2915H69.111V69.7915H68.611V70.2915ZM54.4443 71.3332V70.8332H53.9443V71.3332H54.4443ZM67.4073 71.3332H67.9073V70.8332H67.4073V71.3332ZM54.4443 77.0623H53.9443V77.5623H54.4443V77.0623ZM67.4073 77.0623V77.5623H67.9073V77.0623H67.4073ZM53.4258 78.604H68.611V77.604H53.4258V78.604ZM52.9258 70.2915V78.104H53.9258V70.2915H52.9258ZM68.611 69.7915H53.4258V70.7915H68.611V69.7915ZM69.111 78.104V70.2915H68.111V78.104H69.111ZM54.4443 71.8332H67.4073V70.8332H54.4443V71.8332ZM54.9443 77.0623V71.3332H53.9443V77.0623H54.9443ZM67.4073 76.5623H54.4443V77.5623H67.4073V76.5623ZM66.9073 71.3332V77.0623H67.9073V71.3332H66.9073Z" fill="#18BCEE"/>
</svg>
