<svg width="38" height="39" viewBox="0 0 38 39" fill="none" xmlns="http://www.w3.org/2000/svg">
<mask id="mask0" mask-type="alpha" maskUnits="userSpaceOnUse" x="0" y="0" width="38" height="39">
<path fill-rule="evenodd" clip-rule="evenodd" d="M19 38.6938C8.50659 38.6938 0 30.1873 0 19.6938C0 9.20044 8.50659 0.693848 19 0.693848C29.4934 0.693848 38 9.20044 38 19.6938C38 30.1873 29.4934 38.6938 19 38.6938ZM19 36.6938C28.3888 36.6938 36 29.0827 36 19.6938C36 10.305 28.3888 2.69385 19 2.69385C9.61116 2.69385 2 10.305 2 19.6938C2 29.0827 9.61116 36.6938 19 36.6938ZM28.7486 20.4291C29.396 20.0407 29.396 19.1025 28.7486 18.7141L15.6923 10.8803C15.0257 10.4804 14.1778 10.9605 14.1778 11.7378V27.4054C14.1778 28.1827 15.0257 28.6628 15.6923 28.2629L28.7486 20.4291Z" fill="white"/>
</mask>
<g mask="url(#mask0)">
<rect x="-3" y="-2.30615" width="44" height="44" fill="white"/>
</g>
</svg>
