<svg width="100" height="100" viewBox="0 0 100 100" fill="none" xmlns="http://www.w3.org/2000/svg">
<path fill-rule="evenodd" clip-rule="evenodd" d="M38.9319 48.9041C39.7893 48.9041 40.4809 48.2022 40.4809 47.3354V18.1389H58.9408V47.3354C58.9408 48.2022 59.6338 48.9041 60.4898 48.9041C61.3458 48.9041 62.0403 48.2022 62.0403 47.3354V16.5687C62.0403 15.7019 61.3458 15 60.4898 15H38.9319C38.0744 15 37.3828 15.7019 37.3828 16.5687V47.3354C37.3828 48.2022 38.0744 48.9041 38.9319 48.9041Z" fill="#004E8F"/>
<mask id="mask0" mask-type="alpha" maskUnits="userSpaceOnUse" x="23" y="38" width="54" height="52">
<path fill-rule="evenodd" clip-rule="evenodd" d="M23 38.995H76.3416V90H23V38.995Z" fill="white"/>
</mask>
<g mask="url(#mask0)">
<path fill-rule="evenodd" clip-rule="evenodd" d="M59.9324 69.2447C59.407 69.6429 59.1859 70.3271 59.3774 70.9588L64.2212 86.8217L50.5519 77.3273C50.0236 76.9606 49.3202 76.9606 48.7933 77.3273L35.1241 86.922L39.9634 70.9588C40.1549 70.3256 39.9338 69.6429 39.4084 69.2447L26.0641 59.2488L42.7905 58.9104C43.4405 58.897 44.0104 58.4778 44.2255 57.8625L49.6303 42.0984L55.1182 57.8625C55.3349 58.4778 55.9048 58.897 56.5533 58.9104L73.2529 59.1664L59.9324 69.2447ZM76.1913 58.2577C75.7847 56.9852 74.6657 56.1439 73.3405 56.1154L57.6915 55.798L52.5598 41.058C52.122 39.8064 50.9882 38.995 49.6719 38.995C48.3556 38.995 47.2218 39.8064 46.7855 41.058L41.6537 55.798L26.0018 56.1154C24.6795 56.1439 23.5621 56.9852 23.1525 58.2577C22.7459 59.5302 23.1688 60.8716 24.2269 61.6755L36.6734 71.0921L32.1516 86.0043C31.8666 86.9505 32.0328 87.9445 32.6101 88.7275C33.5614 90.0344 35.4936 90.3728 36.8158 89.4521L49.6719 80.5221L62.5309 89.4521C63.0473 89.8099 63.6439 90 64.2568 90C65.2274 90 66.1519 89.5254 66.7381 88.7305C67.3139 87.9445 67.4771 86.9535 67.1937 86.0043L62.6674 71.0921L75.1169 61.6725C76.1735 60.8716 76.5949 59.5302 76.1913 58.2577Z" fill="#18BCEE"/>
</g>
</svg>
