<svg width="100" height="100" viewBox="0 0 100 100" fill="none" xmlns="http://www.w3.org/2000/svg">
<path d="M31.9281 29.1174C31.7032 29.808 32.0823 30.5508 32.7723 30.7757C32.9085 30.8194 33.0447 30.8405 33.1797 30.8405C33.7348 30.8405 34.2501 30.4866 34.4313 29.9308C36.2494 24.3355 42.2823 21.2638 47.8771 23.0807C48.5671 23.3062 49.3098 22.9271 49.5347 22.2358C49.7596 21.5445 49.3805 20.8024 48.6892 20.5775C41.7221 18.3142 34.1961 22.1421 31.9281 29.1174Z" fill="#18BCEE"/>
<path d="M25.9454 29.037C26.0803 29.0807 26.2166 29.1019 26.3515 29.1019C26.9066 29.1019 27.4219 28.7479 27.6031 28.1921C29.1039 23.5746 32.3086 19.8194 36.6286 17.619C40.9473 15.4185 45.8699 15.0331 50.4881 16.5325C51.1781 16.7574 51.9208 16.379 52.1457 15.6877C52.3706 14.9964 51.9915 14.2543 51.3002 14.0294C46.0165 12.312 40.3807 12.7546 35.4336 15.2739C30.4878 17.7936 26.8179 22.0931 25.1 27.3787C24.875 28.07 25.2541 28.8121 25.9454 29.037Z" fill="#18BCEE"/>
<path fill-rule="evenodd" clip-rule="evenodd" d="M64.8644 32.9691L66.2341 30.0304C66.9769 28.4371 67.0552 26.6504 66.4552 24.9998C65.8539 23.3487 64.646 22.0304 63.0527 21.2876C61.4594 20.5437 59.6732 20.4659 58.0222 21.0672C56.371 21.6679 55.0527 22.8764 54.3099 24.4697L52.9402 27.4084C44.7332 25.4334 38.5847 28.3342 35.0884 35.832L27.804 51.4543C27.3839 52.3551 26.6398 53.0785 25.6478 53.5475L13.748 59.2354C13.4319 59.387 13.189 59.6581 13.0734 59.9896C12.9577 60.321 12.9795 60.6847 13.1337 61.0002C13.3405 61.4238 15.4936 65.2868 27.2259 71.8247C25.3624 77.2975 27.7718 83.3783 32.9682 85.8023C34.4485 86.4923 36.0097 86.8188 37.5555 86.8188C41.4374 86.8188 45.2036 84.7438 47.3466 81.2105C56.2587 84.612 61.0399 85.1831 63.2262 85.1831C64.1231 85.1831 64.5844 85.088 64.7181 85.0552C65.0586 84.9704 65.3515 84.7533 65.5315 84.4513C65.7101 84.15 65.7628 83.7896 65.6755 83.4497L62.3822 70.6729C62.1059 69.6167 62.1818 68.5822 62.6019 67.6802L69.8862 52.0584C73.3823 44.56 71.6437 37.981 64.8644 32.9691ZM34.0808 83.4175C30.2478 81.6295 28.4065 77.2125 29.577 73.1129C29.6377 73.1453 29.701 73.1783 29.7644 73.2114L29.7646 73.2115C29.8187 73.2397 29.8728 73.2679 29.9253 73.2958C30.186 73.4342 30.4528 73.5737 30.7208 73.7134C31.1207 73.9221 31.5282 74.132 31.9439 74.3435C32.2093 74.4785 32.4747 74.6134 32.7465 74.7496C33.2068 74.9801 33.6793 75.2129 34.157 75.4463C34.2426 75.4881 34.3274 75.5298 34.4123 75.5714C34.5704 75.6491 34.7285 75.7267 34.8909 75.805C35.6212 76.1575 36.3661 76.5122 37.1339 76.8701C37.9069 77.2306 38.662 77.5752 39.4057 77.91C39.5662 77.9822 39.7234 78.0517 39.8806 78.1212L39.8831 78.1223C39.9653 78.1586 40.0474 78.1948 40.1301 78.2316C40.6199 78.4493 41.1055 78.6634 41.5811 78.8692C41.8622 78.9908 42.138 79.1083 42.4137 79.2255C42.8481 79.4101 43.2752 79.5892 43.6964 79.7631L43.736 79.7795L43.7362 79.7796C43.9853 79.8824 44.2339 79.985 44.4777 80.0838C44.535 80.107 44.5937 80.1313 44.6524 80.1556L44.6525 80.1557C44.726 80.1861 44.7995 80.2165 44.8706 80.245C42.4818 83.7754 37.9151 85.2055 34.0808 83.4175ZM60.2168 66.5685L67.5011 50.9462C70.6159 44.2656 68.9711 38.8863 62.4705 34.5006C61.9347 34.1383 61.7406 33.4405 62.0143 32.8539L63.8491 28.9181C64.2951 27.9616 64.3426 26.8898 63.9815 25.8998C63.6216 24.9091 62.8957 24.1183 61.9397 23.6723C60.9837 23.2251 59.912 23.1795 58.9214 23.54C57.9307 23.9005 57.1405 24.6251 56.6945 25.5812L54.8597 29.5163C54.586 30.1029 53.9332 30.4081 53.3049 30.2256C45.7701 28.0656 40.5891 30.2637 37.4731 36.9441L30.1887 52.5659C29.5064 54.03 28.3269 55.1917 26.7785 55.9241L16.3473 60.9097C17.7377 62.4195 21.162 65.4834 28.9411 69.7726L29.4987 70.0746C31.2049 71.0193 33.1131 72.0038 35.1732 73.0129C36.1644 73.4985 37.1802 73.9881 38.2466 74.4852C41.5374 76.0201 44.5609 77.3192 47.2336 78.3459L47.844 78.5855C56.1114 81.7818 60.6574 82.4384 62.7211 82.5316L59.8339 71.3338C59.4022 69.682 59.5344 68.0327 60.2168 66.5685Z" fill="#004E8F"/>
<path d="M72.8318 31.8344C72.2138 31.4489 71.4042 31.6365 71.0188 32.2533C70.6332 32.8695 70.8209 33.681 71.4364 34.0664C73.856 35.5781 75.5405 37.9392 76.1817 40.714C76.8228 43.4895 76.3423 46.3498 74.8311 48.7694C74.4456 49.3856 74.6332 50.197 75.2488 50.5824C75.4659 50.7179 75.7074 50.7823 75.9452 50.7823C76.3834 50.7823 76.8126 50.5632 77.0618 50.1636C78.9468 47.1485 79.5443 43.5827 78.7464 40.1224C77.9472 36.6625 75.8463 33.7187 72.8318 31.8344Z" fill="#18BCEE"/>
<path d="M85.4149 38.5803C84.166 33.1719 80.883 28.5713 76.1697 25.6255C75.5517 25.24 74.7409 25.4282 74.3567 26.0444C73.9711 26.6606 74.1588 27.4721 74.7743 27.8575C83.2665 33.1643 85.8582 44.3902 80.5527 52.8825C80.1672 53.4986 80.3548 54.3101 80.9703 54.6955C81.1874 54.831 81.429 54.8953 81.6668 54.8953C82.1049 54.8953 82.5342 54.6763 82.7834 54.2767C85.7297 49.5635 86.6639 43.9888 85.4149 38.5803Z" fill="#18BCEE"/>
</svg>
