<svg width="100" height="100" viewBox="0 0 100 100" fill="none" xmlns="http://www.w3.org/2000/svg">
<path fill-rule="evenodd" clip-rule="evenodd" d="M73.5188 13.5208V23.9375C76.7595 23.9375 79.4447 26.4549 79.3521 29.4931V82.2708C79.3521 85.3958 76.667 87.9132 73.3336 87.9132H57.8707H32.5929H26.5744V82.2708V77.5833C23.241 77.4965 20.6484 74.9792 20.6484 71.941V19.1632C20.6484 16.0382 23.3336 13.5208 26.667 13.5208H73.5188ZM26.5744 29.4931V25.066V23.9375L64.9077 15.4306H28.7966H26.7595C24.3521 15.4306 22.4077 17.2535 22.4077 19.5104V71.5938C22.4077 73.8507 24.2595 75.5868 26.5744 75.6736V29.4931ZM71.4818 15.9514V23.9375H57.8707H35.5558L71.4818 15.9514ZM73.3336 86.0903C75.741 86.0903 77.6855 84.2674 77.6855 82.0104H77.5929V29.8403C77.5929 27.5833 75.6484 25.7604 73.241 25.7604H71.204H28.3336V29.8403V82.0104V86.0903H32.6855H73.3336Z" fill="#004E8F"/>
<path d="M73.5188 23.9375H73.0188V24.4375H73.5188V23.9375ZM73.5188 13.5208H74.0188V13.0208H73.5188V13.5208ZM79.3521 29.4931L78.8524 29.4778L78.8521 29.4854V29.4931H79.3521ZM26.5744 87.9132H26.0744V88.4132H26.5744V87.9132ZM26.5744 77.5833H27.0744V77.0962L26.5874 77.0835L26.5744 77.5833ZM26.5744 23.9375L26.466 23.4494L26.0744 23.5363V23.9375H26.5744ZM64.9077 15.4306L65.016 15.9187L64.9077 14.9306V15.4306ZM26.5744 75.6736L26.5556 76.1733L27.0744 76.1927V75.6736H26.5744ZM71.4818 23.9375V24.4375H71.9818V23.9375H71.4818ZM71.4818 15.9514H71.9818V15.328L71.3733 15.4633L71.4818 15.9514ZM35.5558 23.9375L35.4473 23.4494L35.5558 24.4375V23.9375ZM77.6855 82.0104H78.1855V81.5104H77.6855V82.0104ZM77.5929 82.0104H77.0929V82.5104H77.5929V82.0104ZM28.3336 25.7604V25.2604H27.8336V25.7604H28.3336ZM28.3336 86.0903H27.8336V86.5903H28.3336V86.0903ZM74.0188 23.9375V13.5208H73.0188V23.9375H74.0188ZM79.8519 29.5083C79.9543 26.1487 77.0006 23.4375 73.5188 23.4375V24.4375C76.5185 24.4375 78.9352 26.7611 78.8524 29.4778L79.8519 29.5083ZM79.8521 82.2708V29.4931H78.8521V82.2708H79.8521ZM73.3336 88.4132C76.9122 88.4132 79.8521 85.7019 79.8521 82.2708H78.8521C78.8521 85.0898 76.4217 87.4132 73.3336 87.4132V88.4132ZM57.8707 88.4132H73.3336V87.4132H57.8707V88.4132ZM32.5929 88.4132H57.8707V87.4132H32.5929V88.4132ZM26.5744 88.4132H32.5929V87.4132H26.5744V88.4132ZM26.0744 82.2708V87.9132H27.0744V82.2708H26.0744ZM26.0744 77.5833V82.2708H27.0744V77.5833H26.0744ZM20.1484 71.941C20.1484 75.2818 22.9897 77.9902 26.5613 78.0832L26.5874 77.0835C23.4923 77.0029 21.1484 74.6765 21.1484 71.941H20.1484ZM20.1484 19.1632V71.941H21.1484V19.1632H20.1484ZM26.667 13.0208C23.0884 13.0208 20.1484 15.7321 20.1484 19.1632H21.1484C21.1484 16.3442 23.5789 14.0208 26.667 14.0208V13.0208ZM73.5188 13.0208H26.667V14.0208H73.5188V13.0208ZM26.0744 25.066V29.4931H27.0744V25.066H26.0744ZM26.0744 23.9375V25.066H27.0744V23.9375H26.0744ZM64.7994 14.9424L26.466 23.4494L26.6827 24.4256L65.016 15.9187L64.7994 14.9424ZM28.7966 15.9306H64.9077V14.9306H28.7966V15.9306ZM26.7595 15.9306H28.7966V14.9306H26.7595V15.9306ZM22.9077 19.5104C22.9077 17.5595 24.5974 15.9306 26.7595 15.9306V14.9306C24.1069 14.9306 21.9077 16.9474 21.9077 19.5104H22.9077ZM22.9077 71.5938V19.5104H21.9077V71.5938H22.9077ZM26.5931 75.174C24.5132 75.096 22.9077 73.5493 22.9077 71.5938H21.9077C21.9077 74.1521 24.0059 76.0777 26.5556 76.1733L26.5931 75.174ZM26.0744 29.4931V75.6736H27.0744V29.4931H26.0744ZM71.9818 23.9375V15.9514H70.9818V23.9375H71.9818ZM57.8707 24.4375H71.4818V23.4375H57.8707V24.4375ZM35.5558 24.4375H57.8707V23.4375H35.5558V24.4375ZM71.3733 15.4633L35.4473 23.4494L35.6643 24.4256L71.5903 16.4395L71.3733 15.4633ZM77.1855 82.0104C77.1855 83.9613 75.4958 85.5903 73.3336 85.5903V86.5903C75.9863 86.5903 78.1855 84.5734 78.1855 82.0104H77.1855ZM77.5929 82.5104H77.6855V81.5104H77.5929V82.5104ZM77.0929 29.8403V82.0104H78.0929V29.8403H77.0929ZM73.241 26.2604C75.4032 26.2604 77.0929 27.8894 77.0929 29.8403H78.0929C78.0929 27.2773 75.8937 25.2604 73.241 25.2604V26.2604ZM71.204 26.2604H73.241V25.2604H71.204V26.2604ZM28.3336 26.2604H71.204V25.2604H28.3336V26.2604ZM28.8336 29.8403V25.7604H27.8336V29.8403H28.8336ZM28.8336 82.0104V29.8403H27.8336V82.0104H28.8336ZM28.8336 86.0903V82.0104H27.8336V86.0903H28.8336ZM32.6855 85.5903H28.3336V86.5903H32.6855V85.5903ZM73.3336 85.5903H32.6855V86.5903H73.3336V85.5903Z" fill="#004E8F"/>
<path d="M67.7773 61.9583H38.6107C38.1477 61.9583 37.7773 62.3056 37.7773 62.7396C37.7773 63.1736 38.1477 63.5208 38.6107 63.5208H67.6848C68.1477 63.5208 68.5181 63.1736 68.5181 62.7396C68.5181 62.3056 68.1477 61.9583 67.7773 61.9583Z" fill="#18BCEE"/>
<path d="M67.7773 66.559H38.6107C38.1477 66.559 37.7773 66.9063 37.7773 67.3403C37.7773 67.7743 38.1477 68.1215 38.6107 68.1215H67.6848C68.1477 68.1215 68.5181 67.7743 68.5181 67.3403C68.5181 66.9063 68.1477 66.559 67.7773 66.559Z" fill="#18BCEE"/>
<path d="M49.2588 71.0729H38.6107C38.1477 71.0729 37.7773 71.4201 37.7773 71.8542C37.7773 72.2882 38.1477 72.6354 38.6107 72.6354H49.2588C49.7218 72.6354 50.0922 72.2882 50.0922 71.8542C50.0922 71.4201 49.7218 71.0729 49.2588 71.0729Z" fill="#18BCEE"/>
<path d="M49.2588 75.6736H38.6107C38.1477 75.6736 37.7773 76.0208 37.7773 76.4549C37.7773 76.8889 38.1477 77.2361 38.6107 77.2361H49.2588C49.7218 77.2361 50.0922 76.8889 50.0922 76.4549C50.0922 76.0208 49.7218 75.6736 49.2588 75.6736Z" fill="#18BCEE"/>
<path d="M67.7773 52.4097H38.6107C38.1477 52.4097 37.7773 52.757 37.7773 53.191C37.7773 53.625 38.1477 53.9722 38.6107 53.9722H67.6848C68.1477 53.9722 68.5181 53.625 68.5181 53.191C68.5181 52.757 68.1477 52.4097 67.7773 52.4097Z" fill="#18BCEE"/>
<path d="M67.7773 57.0104H38.6107C38.1477 57.0104 37.7773 57.3576 37.7773 57.7917C37.7773 58.2257 38.1477 58.5729 38.6107 58.5729H67.6848C68.1477 58.5729 68.5181 58.2257 68.5181 57.7917C68.5181 57.3576 68.1477 57.0104 67.7773 57.0104Z" fill="#18BCEE"/>
<path fill-rule="evenodd" clip-rule="evenodd" d="M68.5169 49.2847H37.6836V34.6146H68.5169V49.2847ZM67.4058 35.7431H38.7021V48.2431H67.4058V35.7431Z" fill="#18BCEE"/>
<path d="M37.6836 49.2847H37.1836V49.7847H37.6836V49.2847ZM68.5169 49.2847V49.7847H69.0169V49.2847H68.5169ZM37.6836 34.6146V34.1146H37.1836V34.6146H37.6836ZM68.5169 34.6146H69.0169V34.1146H68.5169V34.6146ZM38.7021 35.7431V35.2431H38.2021V35.7431H38.7021ZM67.4058 35.7431H67.9058V35.2431H67.4058V35.7431ZM38.7021 48.2431H38.2021V48.7431H38.7021V48.2431ZM67.4058 48.2431V48.7431H67.9058V48.2431H67.4058ZM37.6836 49.7847H68.5169V48.7847H37.6836V49.7847ZM37.1836 34.6146V49.2847H38.1836V34.6146H37.1836ZM68.5169 34.1146H37.6836V35.1146H68.5169V34.1146ZM69.0169 49.2847V34.6146H68.0169V49.2847H69.0169ZM38.7021 36.2431H67.4058V35.2431H38.7021V36.2431ZM39.2021 48.2431V35.7431H38.2021V48.2431H39.2021ZM67.4058 47.7431H38.7021V48.7431H67.4058V47.7431ZM66.9058 35.7431V48.2431H67.9058V35.7431H66.9058Z" fill="#18BCEE"/>
<path fill-rule="evenodd" clip-rule="evenodd" d="M68.611 78.1042H53.4258V70.2917H68.611V78.1042ZM67.4073 71.3333H54.4443V77.0625H67.4073V71.3333Z" fill="#18BCEE"/>
<path d="M53.4258 78.1042H52.9258V78.6042H53.4258V78.1042ZM68.611 78.1042V78.6042H69.111V78.1042H68.611ZM53.4258 70.2917V69.7917H52.9258V70.2917H53.4258ZM68.611 70.2917H69.111V69.7917H68.611V70.2917ZM54.4443 71.3333V70.8333H53.9443V71.3333H54.4443ZM67.4073 71.3333H67.9073V70.8333H67.4073V71.3333ZM54.4443 77.0625H53.9443V77.5625H54.4443V77.0625ZM67.4073 77.0625V77.5625H67.9073V77.0625H67.4073ZM53.4258 78.6042H68.611V77.6042H53.4258V78.6042ZM52.9258 70.2917V78.1042H53.9258V70.2917H52.9258ZM68.611 69.7917H53.4258V70.7917H68.611V69.7917ZM69.111 78.1042V70.2917H68.111V78.1042H69.111ZM54.4443 71.8333H67.4073V70.8333H54.4443V71.8333ZM54.9443 77.0625V71.3333H53.9443V77.0625H54.9443ZM67.4073 76.5625H54.4443V77.5625H67.4073V76.5625ZM66.9073 71.3333V77.0625H67.9073V71.3333H66.9073Z" fill="#18BCEE"/>
</svg>
