<svg width="100" height="100" viewBox="0 0 100 100" fill="none" xmlns="http://www.w3.org/2000/svg">
<path fill-rule="evenodd" clip-rule="evenodd" d="M49.2978 36.3233C49.6356 35.8922 50.3644 35.8922 50.7022 36.3233L56.9244 44.3233C57.1333 44.5944 57.1689 44.9544 57.0222 45.2611C56.8711 45.5633 56.56 45.7589 56.2222 45.7589H43.7778C43.4356 45.7589 43.1289 45.5678 42.9778 45.2611C42.8311 44.9544 42.8667 44.59 43.0756 44.3233L49.2978 36.3233ZM50 38.3189L45.5956 43.9811H54.4044L50 38.3189ZM43.7778 66.2033C43.44 66.2033 43.1289 66.3989 42.9778 66.7011C42.8267 67.0078 42.8667 67.3678 43.0756 67.6389L49.2978 75.6389C49.4667 75.8567 49.7244 75.9811 50 75.9811C50.2756 75.9811 50.5333 75.8522 50.7022 75.6389L56.9244 67.6389C57.1333 67.3722 57.1689 67.0078 57.0222 66.7011C56.8711 66.3944 56.56 66.2033 56.2222 66.2033H43.7778ZM45.5956 67.9811L50 73.6433L54.4044 67.9811H45.5956ZM69.6578 55.2789L61.6578 49.0567C61.3911 48.8478 61.0267 48.8122 60.72 48.9589C60.4133 49.11 60.2222 49.4167 60.2222 49.7589V62.2033C60.2222 62.5411 60.4178 62.8522 60.72 63.0033C60.8444 63.0656 60.9778 63.0922 61.1111 63.0922C61.3067 63.0922 61.4978 63.03 61.6578 62.9056L69.6578 56.6833C69.8711 56.5144 70 56.2567 70 55.9811C70 55.7056 69.8711 55.4478 69.6578 55.2789ZM67.6622 55.9811L62 51.5767V60.3856L67.6622 55.9811ZM39.28 48.9589C38.9733 48.8078 38.6133 48.8478 38.3422 49.0567L30.3422 55.2789C30.1289 55.4478 30 55.7056 30 55.9811C30 56.2567 30.1289 56.5144 30.3422 56.6833L38.3422 62.9056C38.5022 63.03 38.6933 63.0922 38.8889 63.0922C39.0222 63.0922 39.1556 63.0611 39.28 63.0033C39.5867 62.8522 39.7778 62.5456 39.7778 62.2033V49.7589C39.7778 49.4211 39.5822 49.11 39.28 48.9589ZM32.3378 55.9811L38 60.3856V51.5767L32.3378 55.9811ZM55.7778 55.9811C55.7778 52.7944 53.1867 50.2033 50 50.2033C46.8133 50.2033 44.2222 52.7944 44.2222 55.9811C44.2222 59.1678 46.8133 61.7589 50 61.7589C53.1867 61.7589 55.7778 59.1678 55.7778 55.9811ZM50 51.9811C47.7956 51.9811 46 53.7767 46 55.9811C46 58.1856 47.7956 59.9811 50 59.9811C52.2044 59.9811 54 58.1856 54 55.9811C54 53.7767 52.2044 51.9811 50 51.9811Z" fill="#18BCEE"/>
<path fill-rule="evenodd" clip-rule="evenodd" d="M24.973 13H56.6922H59.226H59.6014L79.3086 32.3318V83.0075C79.3086 85.729 77.0563 87.8874 74.3349 87.8874H25.5361C22.9084 87.8874 19.9993 85.8228 19.9993 83.0075V17.8799C20.0931 15.1584 22.2515 13 24.973 13ZM59.226 16.0968V31.8626H75.2733L59.226 16.0968ZM25.6299 85.3536C24.2223 85.3536 22.6269 84.1336 22.6269 83.0075H22.7208V17.8799C22.7208 16.5661 23.8469 15.5338 25.1607 15.5338H56.7861V34.3964H76.8687V83.0075C76.8687 84.3213 75.7425 85.3536 74.4287 85.3536H25.6299Z" fill="#004E8F"/>
</svg>
