<svg width="100" height="100" viewBox="0 0 100 100" fill="none" xmlns="http://www.w3.org/2000/svg">
<mask id="mask0" mask-type="alpha" maskUnits="userSpaceOnUse" x="13" y="13" width="75" height="75">
<path fill-rule="evenodd" clip-rule="evenodd" d="M13 13H88V88H13V13Z" fill="white"/>
</mask>
<g mask="url(#mask0)">
<path fill-rule="evenodd" clip-rule="evenodd" d="M80.7714 74.7774C67.8003 74.9887 56.7766 80.5512 51.958 83.3997V41.6536C66.7786 34.7847 76.2148 33.3246 81.5538 33.3246C82.8951 33.3246 83.9081 33.4224 84.6102 33.5272L80.7714 74.7774ZM16.3841 33.522C17.0635 33.4189 18.0397 33.3246 19.3339 33.3246C24.5681 33.3246 33.8803 34.7847 48.6956 41.6536V83.384C43.9085 80.5268 32.9948 74.9904 20.0604 74.7774L16.3841 33.522ZM81.5538 30.0604C76.62 30.0604 68.4116 31.2428 56.2456 36.236L50.4561 38.3417L44.8551 36.4089C32.4639 31.2568 24.2362 30.0604 19.3339 30.0604C15.8951 30.0604 14.2342 30.649 14.0578 30.7154C13.3714 30.9721 12.9418 31.6585 13.0064 32.3885L16.943 76.5535C17.0181 77.3971 17.7236 78.0398 18.5672 78.0398H18.5951L19.292 78.0345C35.6617 78.0345 49.2423 87.5983 49.3785 87.6961C49.4082 87.7188 49.4501 87.7101 49.4833 87.7293C49.52 87.7537 49.5374 87.7974 49.5776 87.8166C49.8134 87.9406 50.0701 88 50.3268 88C50.5818 88 50.8386 87.9406 51.0726 87.8183C51.111 87.7991 51.1285 87.7555 51.1634 87.7328C51.1966 87.7136 51.2385 87.7223 51.2682 87.6996C51.4062 87.6053 65.1544 78.0345 81.5329 78.0345L82.2297 78.0398H82.2577C83.0995 78.0398 83.805 77.3988 83.8836 76.5605L87.9931 32.3937C88.0612 31.655 87.6211 30.9634 86.9242 30.7101C86.7409 30.642 85.0433 30.0604 81.5538 30.0604Z" fill="#18BCEE"/>
<path fill-rule="evenodd" clip-rule="evenodd" d="M55.3793 36.0908C59.4902 32.1666 67.0615 26.951 78.7011 26.309C79.4591 26.2663 80.0405 25.6169 79.9978 24.8601C79.9566 24.1003 79.281 23.4921 78.5509 23.5613C66.9247 24.2033 59.1238 28.9875 54.5094 33.0781C57.4944 28.2439 63.6483 22.1315 76.2195 19.2174C76.9599 19.0452 77.4205 18.306 77.2483 17.5668C77.0791 16.8261 76.3476 16.3652 75.5984 16.536C59.2238 20.3307 52.911 29.1657 50.5001 34.7479C48.0877 29.1657 41.7748 20.3307 25.4003 16.536C24.66 16.3637 23.9225 16.8261 23.7503 17.5668C23.5796 18.306 24.0403 19.0452 24.7806 19.2174C37.583 22.1831 43.7177 28.3617 46.6364 33.2077C42.0398 29.0906 34.1991 24.2092 22.4492 23.5613C21.6853 23.4965 21.0436 24.1017 21.0024 24.8601C20.9582 25.6169 21.5396 26.2663 22.2991 26.309C34.0799 26.9584 41.7027 32.2962 45.7798 36.2366C45.7798 36.2366 49.9 37.8594 50.4 37.8594C50.9 37.8594 55.3793 36.0908 55.3793 36.0908Z" fill="#004E8F"/>
</g>
</svg>
