<svg width="100" height="100" viewBox="0 0 100 100" fill="none" xmlns="http://www.w3.org/2000/svg">
<path fill-rule="evenodd" clip-rule="evenodd" d="M84.7045 13H40.5C38.6818 13 37.2045 14.4773 37.2045 16.2955V39.0227L35.1591 40.7273L28.1136 40.9545C30.6136 39.7045 32.3182 37.0909 32.3182 34.1364C32.3182 29.9318 28.9091 26.5227 24.7045 26.5227C20.5 26.5227 17.0909 29.9318 17.0909 34.1364C17.0909 37.3182 19.0227 40.0455 21.75 41.1818L20.2727 41.2955C17.5455 41.5227 13 42.8864 13 46.9773V63.9091C13 64.5909 13.4545 65.0455 14.1364 65.0455H16.1818V86.8636C16.1818 87.5455 16.6364 88 17.3182 88H22.0909C22.6591 88 23.1136 87.5455 23.2273 86.9773L24.7045 74.9318L26.6364 86.9773C26.75 87.5455 27.2045 87.8864 27.7727 87.8864H32.7727C33.1136 87.8864 33.3409 87.7727 33.5682 87.5455C33.7955 87.3182 33.9091 87.0909 33.9091 86.75L33.6818 50.5C33.6818 50.3864 33.7955 49.7045 34.1364 49.4773C34.4773 49.25 35.1591 49.3636 35.9545 49.7045C36.4091 49.9318 36.8636 49.8182 37.2045 49.4773L39.0227 47.8864C39.4773 48.1136 39.9318 48.2273 40.5 48.2273H51.5227L43.4545 61.9773H42.2045C41.5227 61.9773 41.0682 62.4318 41.0682 63.1136C41.0682 63.7955 41.5227 64.25 42.2045 64.25H46.4091C47.0909 64.25 47.5455 63.7955 47.5455 63.1136C47.5455 62.4318 47.0909 61.9773 46.4091 61.9773H46.0682L54.1364 48.2273H61.2955V58H60.2727C59.5909 58 59.1364 58.4545 59.1364 59.1364C59.1364 59.8182 59.5909 60.2727 60.2727 60.2727H64.4773C65.1591 60.2727 65.6136 59.8182 65.6136 59.1364C65.6136 58.4545 65.1591 58 64.4773 58H63.4545V48.2273H70.9545L79.0227 61.9773H78.5682C77.8864 61.9773 77.4318 62.4318 77.4318 63.1136C77.4318 63.7955 77.8864 64.25 78.5682 64.25H82.7727C83.4545 64.25 83.9091 63.7955 83.9091 63.1136C83.9091 62.4318 83.4545 61.9773 82.7727 61.9773H81.6364L73.5682 48.2273H84.5909C86.4091 48.2273 87.8864 46.75 87.8864 44.9318V16.2955C88 14.4773 86.5227 13 84.7045 13ZM19.25 34.25C19.25 31.2955 21.6364 28.9091 24.5909 28.9091C27.5455 28.9091 29.9318 31.2955 29.9318 34.25C29.9318 37.2045 27.5455 39.5909 24.5909 39.5909C21.6364 39.5909 19.25 37.2045 19.25 34.25ZM33 47.5455C33.9091 47.0909 35.0455 46.9773 36.2955 47.4318C36.7803 47.0143 37.2572 46.6032 37.728 46.1973L37.7281 46.1972L37.7281 46.1971C41.2295 43.1785 44.394 40.4503 48 37.5455L45.7273 35.1591L36.1818 42.8864C36.0682 43 35.7273 43.1136 35.5 43.1136L20.3864 43.6818C20.2727 43.6818 15.2727 44.0227 15.2727 46.9773V62.7727H17.7727V54.8182C17.7727 54.1364 18.2273 53.6818 18.9091 53.6818C19.5909 53.6818 20.0455 54.1364 20.0455 54.8182V63.9091C20.0455 64.5909 19.5909 65.0455 18.9091 65.0455H18.4545V85.7273H21.1818L23.5682 66.9773C23.6818 66.4091 24.1364 65.9545 24.7045 65.9545C25.2727 65.9545 25.7273 66.2955 25.8409 66.8636L28.9091 85.7273H31.75L31.5227 50.5C31.5227 50.2727 31.5227 48.4545 33 47.5455ZM50.3864 36.6364L49.1364 35.3864L47.6591 33.6818L46.6364 32.6591C46.2955 32.3182 45.7273 32.2045 45.2727 32.4318V19.8182H79.9318V41.75H46.4091L50.3864 38.3409C50.6136 38.1136 50.7273 37.8864 50.7273 37.5455C50.7273 37.0909 50.6136 36.8636 50.3864 36.6364ZM84.7045 46.0682C85.2727 46.0682 85.7273 45.6136 85.7273 45.0455V16.2955C85.7273 15.7273 85.2727 15.2727 84.7045 15.2727H40.5C39.9318 15.2727 39.4773 15.7273 39.4773 16.2955V37.2045L43 34.25V18.6818C43 18 43.4545 17.5455 44.1364 17.5455H81.0682C81.75 17.5455 82.2045 18 82.2045 18.6818V42.6591C82.2045 43.3409 81.75 43.7955 81.0682 43.7955H44.1364H43.9091L41.2955 46.0682H84.7045Z" fill="#004E8F"/>
<path fill-rule="evenodd" clip-rule="evenodd" d="M78.1135 76.4091C79.7045 75.2728 80.8408 73.341 80.8408 71.1819C80.8408 67.6591 77.9999 64.7046 74.3635 64.7046C70.8408 64.7046 67.8863 67.5455 67.8863 71.1819C67.8863 73.341 68.909 75.2728 70.6135 76.4091C66.6363 76.4091 63.3408 79.7046 63.3408 83.7955V86.8637C63.3408 87.5455 63.7954 88 64.4772 88H84.0226C84.7045 88 85.159 87.5455 85.159 86.8637V83.6819C85.159 79.8182 81.9772 76.5228 78.1135 76.4091ZM74.3635 67.091C76.6363 67.091 78.5681 68.9091 78.5681 71.2955C78.5681 73.5682 76.7499 75.3864 74.3635 75.3864C72.0908 75.3864 70.159 73.5682 70.159 71.2955C70.159 68.9091 72.0908 67.091 74.3635 67.091ZM65.6135 85.7273H82.8863H82.9999V83.6819C82.9999 80.841 80.7272 78.5682 77.8863 78.5682H70.7272C67.8863 78.5682 65.6135 80.841 65.6135 83.6819V85.7273Z" fill="#18BCEE"/>
<path fill-rule="evenodd" clip-rule="evenodd" d="M54.7044 76.4091C56.2953 75.2728 57.4316 73.341 57.4316 71.1819C57.4316 67.6591 54.5907 64.7046 50.9544 64.7046C47.4316 64.7046 44.4771 67.5455 44.4771 71.1819C44.4771 73.341 45.4998 75.2728 47.2044 76.4091C43.2271 76.4091 39.9316 79.7046 39.9316 83.7955V86.8637C39.9316 87.5455 40.3862 88 41.068 88H60.6135C61.2953 88 61.7498 87.5455 61.7498 86.8637V83.6819C61.7498 79.8182 58.568 76.5228 54.7044 76.4091ZM50.9544 67.091C53.2271 67.091 55.1589 68.9091 55.1589 71.2955C55.1589 73.5682 53.3407 75.3864 50.9544 75.3864C48.6816 75.3864 46.7498 73.5682 46.7498 71.2955C46.7498 68.9091 48.6816 67.091 50.9544 67.091ZM42.2044 85.7273H59.4771H59.5907V83.6819C59.5907 80.841 57.318 78.5682 54.4771 78.5682H47.318C44.4771 78.5682 42.2044 80.841 42.2044 83.6819V85.7273Z" fill="#18BCEE"/>
</svg>
