<svg width="71" height="70" viewBox="0 0 71 70" fill="none" xmlns="http://www.w3.org/2000/svg">
<path fill-rule="evenodd" clip-rule="evenodd" d="M46.0824 40.1842C47.5313 38.7353 49.8843 38.7353 51.3333 40.1842L60.095 48.9398C61.544 50.3887 61.544 52.7479 60.095 54.1969L56.1135 58.1784C54.3488 59.9431 52.0082 60.9029 49.5623 60.9029C49.1784 60.9029 48.7945 60.8781 48.4044 60.8286C40.1008 59.8007 30.9551 54.8285 23.3141 47.1874C15.6731 39.5464 10.7009 30.4007 9.67299 22.0972C9.32004 19.2364 10.286 16.4314 12.3294 14.388L16.3109 10.4065C17.7536 8.95759 20.1128 8.95759 21.5618 10.4065L30.3174 19.1683C31.0233 19.868 31.4072 20.803 31.4072 21.7938C31.4072 22.7845 31.0171 23.7195 30.3174 24.4192L25.4999 29.2366L41.2649 45.0016L46.0824 40.1842ZM54.361 56.426L58.3426 52.4445C58.8255 51.9615 58.8255 51.1751 58.3426 50.6922L49.587 41.9366C49.104 41.4536 48.3176 41.4536 47.8346 41.9366L42.1441 47.6271C41.6611 48.1101 40.8747 48.1101 40.3917 47.6271L22.8744 30.1035C22.6391 29.8744 22.509 29.5586 22.509 29.2304C22.509 28.9023 22.6391 28.5927 22.8744 28.3574L28.5649 22.6668C29.0479 22.1839 29.0479 21.3975 28.5649 20.9145L19.8093 12.1589C19.5678 11.9174 19.252 11.7998 18.9362 11.7998C18.6204 11.7998 18.3046 11.9174 18.0631 12.1589L14.0816 16.1404C12.5831 17.6389 11.871 19.7008 12.1311 21.7938C13.0909 29.5586 17.8092 38.1842 25.0664 45.4413C32.3235 52.6984 40.9366 57.4168 48.7077 58.3765C50.8006 58.6366 52.8626 57.9245 54.361 56.426Z" fill="#004E8F"/>
<path d="M34.1562 17.7689C34.1562 17.0878 34.7135 16.5305 35.3947 16.5305C45.6364 16.5305 53.9709 24.865 53.9709 35.1067C53.9709 35.7879 53.4136 36.3451 52.7325 36.3451C52.0513 36.3451 51.4941 35.7879 51.4941 35.1067C51.4941 26.2273 44.2741 19.0073 35.3947 19.0073C34.7073 19.0073 34.1562 18.4563 34.1562 17.7689Z" fill="#18BCEE"/>
<path d="M34.1562 10.3385C34.1562 9.65738 34.7135 9.1001 35.3947 9.1001C49.7355 9.1001 61.4014 20.766 61.4014 35.1068C61.4014 35.7879 60.8441 36.3452 60.163 36.3452C59.4818 36.3452 58.9245 35.7879 58.9245 35.1068C58.9245 22.1344 48.3671 11.5769 35.3947 11.5769C34.7073 11.5769 34.1562 11.0258 34.1562 10.3385Z" fill="#18BCEE"/>
</svg>
