<svg width="100" height="100" viewBox="0 0 100 100" fill="none" xmlns="http://www.w3.org/2000/svg">
<path fill-rule="evenodd" clip-rule="evenodd" d="M86.7309 75.3644V75.2881V14.2712C86.7309 13.5691 86.1617 13 85.4597 13H34.6122C33.9102 13 33.341 13.5691 33.341 14.2712V46.9025C30.2767 51.581 30.2767 57.6308 33.341 62.3093V63.1737L33.0486 62.8686C32.5544 62.3841 31.7633 62.3841 31.269 62.8686L14.2732 79.0254C13.4447 79.8845 12.9881 81.0354 13.002 82.2288C12.9654 83.4338 13.4249 84.6011 14.2732 85.4576C15.1183 86.2918 16.264 86.7501 17.4512 86.7288C18.6374 86.7444 19.7809 86.287 20.6292 85.4576L33.341 73.3814V85.4576C33.341 86.1597 33.9102 86.7288 34.6122 86.7288H75.2902C75.4563 86.7268 75.6204 86.6923 75.7732 86.6271C75.9062 86.5632 76.0301 86.482 76.1419 86.3856L86.3114 76.2161C86.414 76.1044 86.4958 75.9753 86.5529 75.8347C86.5574 75.801 86.5574 75.7668 86.5529 75.7331C86.6275 75.6182 86.6873 75.4943 86.7309 75.3644ZM76.5614 82.3814V76.5593H82.3961L76.5614 82.3814ZM38.3368 45.339C37.9172 45.6378 37.5219 45.9693 37.1546 46.3305L36.9893 46.4322C36.5196 46.9143 36.0942 47.4376 35.7181 47.9958C32.9482 51.9673 32.9482 57.2446 35.7181 61.2161C36.0916 61.7684 36.5173 62.2835 36.9893 62.7542C39.1479 64.92 42.0799 66.1374 45.1376 66.1374C48.1954 66.1374 51.1274 64.92 53.2859 62.7542C53.93 62.1259 54.4897 61.4165 54.9512 60.6441C56.3058 58.4709 56.8922 55.9061 56.6164 53.3602C56.6053 53.2037 56.5744 53.0473 56.5434 52.8897L56.5434 52.8897C56.5038 52.6888 56.4639 52.4862 56.4639 52.2797C56.0157 50.051 54.9138 48.0065 53.2986 46.4068L53.1715 46.2797C52.1781 45.3181 51.0198 44.543 49.752 43.9915C49.2779 43.7863 48.7893 43.6163 48.2902 43.4831L47.8961 43.3686C47.4772 43.2678 47.0527 43.1914 46.6249 43.1398H46.3834C45.8884 43.1018 45.3911 43.1018 44.8961 43.1398H44.5402C44.114 43.1611 43.6896 43.2078 43.269 43.2797C43.1971 43.2725 43.1247 43.2725 43.0529 43.2797C42.5748 43.3652 42.1033 43.4842 41.6419 43.6356L41.2986 43.7627C40.8644 43.9096 40.4398 44.0837 40.0275 44.2839L39.9003 44.3475C39.4624 44.5819 39.038 44.8408 38.6292 45.1229L38.3368 45.339ZM18.9003 83.6017C18.5381 83.9782 18.0372 84.1896 17.5148 84.1864C16.7257 84.1805 16.0164 83.7044 15.7119 82.9764C15.4075 82.2485 15.5667 81.4092 16.1164 80.8432L32.1588 65.589L34.9554 68.3602L33.7732 69.4915L18.9003 83.6017ZM37.6122 69.2627C37.6122 69.2627 36.041 69.5546 35.8834 70.9153C35.7258 72.2759 35.8834 84.1864 35.8834 84.1864H74.019V75.2881C74.019 74.5861 74.5881 74.0169 75.2902 74.0169H84.1885V15.5424H35.858V43.9534L35.9978 43.8517L36.3792 43.5339L36.7987 43.2161L37.2181 42.911L37.6249 42.6441L38.0953 42.3771L38.502 42.1483L38.9851 41.8941L39.3919 41.7161L39.9131 41.5C40.04 41.4383 40.1718 41.3873 40.3071 41.3475L40.8537 41.1568L41.2478 41.0424L41.8198 40.8898L42.2139 40.8008L42.7987 40.6992L43.3325 40.6356H43.7775H44.1715H44.7817H45.8241H46.2181H46.8156L47.2224 40.6992L47.8198 40.8008L48.2393 40.8898L48.7986 41.0297L49.3071 41.1822C49.3621 41.2005 49.4188 41.2172 49.4759 41.234C49.5772 41.2639 49.6799 41.2941 49.7775 41.3347L50.4766 41.6017C50.4766 41.6017 50.9493 41.6017 52.7263 42.7909C54.2105 43.784 54.5063 44.1441 54.5063 44.1441L54.8622 44.4619L55.0783 44.6525C56.7898 46.3646 58.0329 48.4875 58.6885 50.8178L59.1334 53.3602C59.249 54.6029 59.1977 55.8556 58.9809 57.0847C58.9294 57.1509 58.929 57.1576 58.9254 57.2104C58.9229 57.2489 58.9187 57.312 58.8919 57.4407C58.8283 57.7458 58.7648 58.0508 58.6885 58.3559C58.5217 58.9263 58.3222 59.4865 58.091 60.0339L56.6927 62.5763C56.1993 63.24 55.6507 63.8608 55.0529 64.4322C52.4182 67.0792 48.8342 68.5623 45.0995 68.5508H43.7648H43.3325L42.4427 68.4237L41.947 68.3093L41.1588 68.1186L40.6503 67.9407L39.9258 67.6864L39.4046 67.4703L38.7181 67.1398L38.2224 66.8729L37.5741 66.4915L37.1037 66.1737C36.9003 66.0381 36.697 65.8856 36.4936 65.7161L36.0487 65.3729L35.8834 65.2331V65.7034L37.6376 67.4449C37.8787 67.6879 38.0116 68.0179 38.0063 68.3602C38.0015 68.7017 37.8595 69.027 37.6122 69.2627Z" fill="#004E8F"/>
<path d="M43.3845 25.7119H66.8379C67.5399 25.7119 68.109 25.1427 68.109 24.4407C68.109 23.7386 67.5399 23.1695 66.8379 23.1695H43.3845C42.6824 23.1695 42.1133 23.7386 42.1133 24.4407C42.1133 25.1427 42.6824 25.7119 43.3845 25.7119Z" fill="#18BCEE"/>
<path d="M76.7531 32.3856H43.3845C42.6824 32.3856 42.1133 32.9547 42.1133 33.6568C42.1133 34.3588 42.6824 34.928 43.3845 34.928H76.7531C77.4552 34.928 78.0243 34.3588 78.0243 33.6568C78.0243 32.9547 77.4552 32.3856 76.7531 32.3856Z" fill="#18BCEE"/>
<path d="M56.2712 42.5424H79.7246C80.4266 42.5424 80.9958 41.9732 80.9958 41.2712C80.9958 40.5691 80.4266 40 79.7246 40H56.2712C55.5691 40 55 40.5691 55 41.2712C55 41.9732 55.5691 42.5424 56.2712 42.5424Z" fill="#18BCEE"/>
<path d="M76.7531 48.3856H63.3845C62.6824 48.3856 62.1133 48.9547 62.1133 49.6568C62.1133 50.3588 62.6824 50.928 63.3845 50.928H76.7531C77.4552 50.928 78.0243 50.3588 78.0243 49.6568C78.0243 48.9547 77.4552 48.3856 76.7531 48.3856Z" fill="#18BCEE"/>
</svg>
