<svg width="78" height="78" viewBox="0 0 78 78" fill="none" xmlns="http://www.w3.org/2000/svg">
<path d="M72.6762 35.5227C74.0482 36.0374 75.3499 36.6012 76.6796 37.2346C76.3731 39.8168 75.6239 42.3331 74.6794 44.7548C73.2513 44.6511 71.7809 44.465 70.3559 44.2319C69.6377 45.809 68.7727 47.2931 67.7858 48.6773C68.6902 49.7897 69.5597 50.9499 70.3884 52.1592C68.8052 54.2139 66.9601 56.0597 64.9047 57.6437C63.6976 56.8097 62.5322 55.9409 61.4182 55.0343C60.0242 56.0264 58.5371 56.8846 56.9781 57.6006C57.2089 59.0271 57.3989 60.5029 57.4995 61.9377C55.0808 62.8761 52.563 63.6269 49.9816 63.9326C49.3519 62.606 48.7858 61.305 48.2712 59.9353C46.5942 60.0934 44.8846 60.0949 43.1568 59.9292C42.6422 61.3013 42.0762 62.6045 41.4442 63.9326C38.8651 63.6276 36.3457 62.8761 33.9255 61.9377C34.0285 60.5051 34.2169 59.0332 34.4462 57.6081C33.5835 57.2138 32.7487 56.7749 31.9412 56.2981L38.1477 49.7239C40.4551 50.7675 43.0168 51.348 45.7133 51.348C55.8649 51.348 64.0942 43.1186 64.0942 32.9671C64.0942 22.8155 55.8664 14.5854 45.7148 14.5854C35.5632 14.5854 27.3339 22.8147 27.3339 32.9663C27.3339 35.2072 27.735 37.3542 28.4691 39.3392L21.6058 45.3073C21.4241 44.9516 21.2486 44.5936 21.0828 44.2296C19.6532 44.4619 18.1783 44.6511 16.7472 44.7541C15.8057 42.3331 15.0542 39.8168 14.75 37.2338C16.0767 36.6012 17.3745 36.0381 18.7481 35.5243C18.5899 33.848 18.5877 32.1369 18.7534 30.4099C17.3776 29.896 16.0782 29.3299 14.75 28.6988C15.0542 26.1151 15.8057 23.598 16.7472 21.1793C18.1752 21.2822 19.6472 21.4692 21.0737 21.6992C21.7927 20.1236 22.6569 18.6403 23.643 17.2576C22.7394 16.1421 21.8691 14.9797 21.0397 13.7749C22.6229 11.7187 24.4687 9.87137 26.5241 8.29119C27.732 9.12366 28.8967 9.99245 30.0129 10.8976C31.4054 9.90618 32.891 9.04874 34.45 8.33357C34.2192 6.904 34.0307 5.42826 33.9278 3.99641C36.348 3.05648 38.8674 2.30877 41.4465 2C42.0769 3.3259 42.6422 4.62606 43.1568 5.99812C44.8339 5.83995 46.5442 5.83768 48.2712 6.00342C48.7866 4.62984 49.3534 3.32817 49.9838 2C52.5645 2.30801 55.0823 3.05648 57.5018 3.99868C57.4011 5.42674 57.2112 6.89794 56.9811 8.32298C58.5568 9.04193 60.0416 9.90694 61.425 10.893C62.5375 9.98867 63.7022 9.12139 64.907 8.29119C66.9624 9.87137 68.8075 11.7187 70.3907 13.7749C69.5597 14.982 68.6894 16.1459 67.7835 17.2622C68.7757 18.6554 69.6339 20.141 70.3483 21.6992C71.7764 21.4692 73.2513 21.2815 74.6824 21.1786C75.6269 23.5965 76.3754 26.1136 76.6826 28.698C75.3552 29.3284 74.0543 29.8937 72.6845 30.4068C72.8396 32.0854 72.8419 33.7958 72.6762 35.5227Z" stroke="white" stroke-width="2"/>
<path d="M39.6957 44.2137C32.4215 52.3257 14.5052 72.2739 11.5106 75.2973C11.5106 75.2973 11.503 75.3049 11.4887 75.3185C10.8355 75.9708 7.73498 79.1077 3.32366 74.6548C-1.08843 70.2018 2.01971 67.0717 2.66601 66.4133C2.67963 66.3982 2.6872 66.3914 2.6872 66.3914C5.7469 63.3022 26.3096 44.4922 33.9873 37.4782C33.0988 34.6365 31.6715 28.4717 34.769 25.3462L46.1731 36.8584L58.1629 24.7559C58.1629 24.7559 60.8752 34.131 50.5307 44.5731L39.6957 44.2137Z" stroke="white" stroke-width="2"/>
<path d="M53.2333 19.7792C53.2333 19.7792 43.1554 16.8895 36.8574 23.2473L43.3325 29.783L53.2333 19.7792Z" stroke="white" stroke-width="2"/>
</svg>
