<svg width="100" height="100" viewBox="0 0 100 100" fill="none" xmlns="http://www.w3.org/2000/svg">
<path fill-rule="evenodd" clip-rule="evenodd" d="M63.1288 55.6796C64.2929 55.2899 65.6287 55.5442 66.5544 56.4687L85.639 75.5232C86.7856 76.6685 87.4172 78.1968 87.4172 79.8263C87.4172 81.4558 86.7856 82.9841 85.639 84.1294L85.1579 84.61C83.9701 85.7961 82.4095 86.3891 80.849 86.3891C79.2894 86.3891 77.7289 85.7961 76.541 84.61L57.4565 65.5555C56.8267 64.927 56.4801 64.089 56.4801 63.1959C56.4801 62.8279 56.5526 62.4743 56.6657 62.136L53.433 58.908C49.1443 61.8591 44.1406 63.3414 39.1334 63.3414C32.6763 63.3414 26.2193 60.8878 21.3039 55.98C16.54 51.2246 13.917 44.9019 13.917 38.1765C13.917 31.4512 16.5408 25.1289 21.3039 20.3739C31.1337 10.558 47.1313 10.558 56.9629 20.3739C61.726 25.1289 64.3489 31.4516 64.3489 38.1765C64.3489 43.3534 62.7891 48.2883 59.9014 52.4568L63.1288 55.6796ZM16.7516 38.1787C16.7516 44.1469 19.0798 49.7576 23.3064 53.9782C32.0341 62.6905 46.2327 62.6905 54.9604 53.9782C59.187 49.7576 61.5143 44.1469 61.5143 38.1787C61.5143 32.2109 59.1862 26.6002 54.9595 22.38C46.2335 13.6673 32.0341 13.6673 23.3064 22.38C19.0798 26.6002 16.7516 32.2109 16.7516 38.1787ZM56.9638 55.98C57.6149 55.3299 58.222 54.648 58.7919 53.9422L61.5764 56.7222L59.6497 58.6457L57.708 60.5839L54.924 57.8035C55.6281 57.238 56.3104 56.6323 56.9638 55.98ZM78.1213 82.359C79.7204 83.9559 82.3248 83.9568 83.9239 82.359C83.9239 82.359 85.8912 79.606 83.3873 77.1064L65.0027 58.7506C64.7205 58.468 64.3486 58.3269 63.9766 58.3269C63.6047 58.3269 63.2327 58.468 62.9506 58.7506L62.3701 59.3301L59.7312 61.9633C59.4634 62.2341 59.3147 62.5948 59.3147 62.9806C59.3147 63.3685 59.4649 63.7318 59.7367 64.0033L78.1213 82.359Z" fill="#004E8F"/>
<path fill-rule="evenodd" clip-rule="evenodd" d="M31.3795 25.9773C31.6798 20.3565 36.235 18.9856 38.888 19.077C41.5411 18.9856 46.0462 20.3565 46.2965 25.9773C46.3465 26.4343 46.8471 31.3697 44.0439 34.2486C42.7925 35.5282 41.0405 36.2137 38.9381 36.2593H38.888H38.838H38.7879H38.7379C36.6355 36.2137 34.8835 35.5282 33.632 34.2486C30.8789 31.3697 31.3294 26.4343 31.3795 25.9773ZM38.9381 34.5228C40.5399 34.5228 41.7913 34.0659 42.6924 33.1062C44.9066 30.8212 44.5287 26.5078 44.4965 26.1393C44.4952 26.1246 44.4944 26.1162 44.4944 26.1144V26.0687C44.2441 20.8592 39.8391 20.7221 38.9381 20.7678H38.888H38.6878C37.4864 20.7678 33.5319 21.1334 33.2816 26.0687V26.1144C33.2816 26.1162 33.2809 26.1246 33.2796 26.1393C33.2473 26.5078 32.8695 30.8212 35.0837 33.1062C35.9847 34.0202 37.2362 34.5228 38.838 34.5228H38.888H38.9381Z" fill="#004E8F"/>
<path d="M44.4448 36.4421C44.4948 36.4421 47.1979 38.1786 50.5017 38.9555C52.8544 39.5039 54.0557 41.5146 53.8555 44.5307C53.8555 44.9419 53.8555 46.6328 53.5051 47.501C53.3549 47.8209 53.0045 48.0494 52.6541 48.0494C52.554 48.0494 52.4039 48.0494 52.3037 48.0037C51.8032 47.8209 51.6029 47.3182 51.7531 46.9069C51.9533 46.4957 52.0034 45.2618 52.0034 44.5763C52.0034 44.5307 52.0034 44.5307 52.0034 44.485C52.1035 43.2511 51.9533 41.1033 50.0512 40.6463C46.397 39.8238 43.4937 37.9502 43.3936 37.8588C42.9931 37.5846 42.893 37.0362 43.1433 36.6706C43.4436 36.2593 43.9943 36.1679 44.4448 36.4421Z" fill="#004E8F"/>
<path d="M24.0215 44.5307C23.8213 41.5146 25.0227 39.5039 27.3754 38.9555C30.6791 38.1786 33.3822 36.4421 33.4323 36.4421C33.8327 36.1679 34.4334 36.2593 34.7338 36.6706C35.0341 37.0362 34.934 37.5846 34.4835 37.8588C34.3834 37.9502 31.43 39.7781 27.8259 40.6463C25.9237 41.1033 25.8236 43.2511 25.8737 44.485C25.8737 44.5307 25.8737 44.5307 25.8737 44.5763C25.8737 45.3075 25.9237 46.4957 26.1239 46.9069C26.3242 47.3639 26.0739 47.8209 25.6234 48.0037C25.5233 48.0494 25.3731 48.0494 25.273 48.0494C24.9226 48.0494 24.5722 47.8666 24.422 47.501C24.0215 46.6328 24.0215 44.9419 24.0215 44.5307Z" fill="#004E8F"/>
<path fill-rule="evenodd" clip-rule="evenodd" d="M38.238 56.9605L35.9854 55.1326C35.7852 54.9955 35.6851 54.7213 35.585 54.4014L36.2858 39.5496C35.8352 39.0469 35.585 38.3615 35.585 37.676C35.585 37.1733 35.9854 36.8077 36.536 36.8077C37.0867 36.8077 37.4871 37.219 37.4871 37.676C37.4871 38.4072 38.1379 38.9555 38.8887 38.9555C39.1891 38.9555 39.4894 38.8641 39.6896 38.727C39.7397 38.727 39.7898 38.6814 39.8398 38.6357C40.0901 38.4072 40.2903 38.0416 40.2903 37.676C40.2903 37.1733 40.7408 36.8077 41.2414 36.8077C41.792 36.8077 42.1925 37.219 42.1925 37.676C42.1925 38.4529 41.8922 39.1383 41.3415 39.6867L42.0924 54.4014C42.0924 54.6756 41.9923 54.9041 41.792 55.0869L39.5395 56.9605C39.3392 57.0976 39.089 57.189 38.8887 57.189C38.6384 57.189 38.4382 57.0976 38.238 56.9605ZM40.1402 54.0815L39.4894 40.6464C39.3392 40.6921 39.139 40.7378 38.8887 40.6921C38.675 40.6921 38.4977 40.6587 38.2946 40.6205C38.2599 40.614 38.2244 40.6073 38.1879 40.6007L37.5372 54.1272L38.8387 55.1783L40.1402 54.0815Z" fill="#18BCEE"/>
</svg>
