<svg width="100" height="100" viewBox="0 0 100 100" fill="none" xmlns="http://www.w3.org/2000/svg">
<path fill-rule="evenodd" clip-rule="evenodd" d="M74.3356 13H42.6164H40.0826H39.7072L20 32.3318V83.0075C20 85.729 22.2523 87.8874 24.9737 87.8874H73.7725C76.4002 87.8874 79.3093 85.8228 79.3093 83.0075V17.8799C79.2155 15.1584 77.0571 13 74.3356 13ZM40.0826 16.0968V31.8626H24.0353L40.0826 16.0968ZM73.6787 85.3536C75.0863 85.3536 76.6817 84.1336 76.6817 83.0075H76.5878V17.8799C76.5878 16.5661 75.4617 15.5338 74.1479 15.5338H42.5225V34.3964H22.4399V83.0075C22.4399 84.3213 23.5661 85.3536 24.8799 85.3536H73.6787Z" fill="#004E8F"/>
<path d="M66.6398 39H33.2712C32.5691 39 32 39.5691 32 40.2712C32 40.9732 32.5691 41.5424 33.2712 41.5424H66.6398C67.3419 41.5424 67.911 40.9732 67.911 40.2712C67.911 39.5691 67.3419 39 66.6398 39Z" fill="#18BCEE"/>
<path d="M66.6398 48H33.2712C32.5691 48 32 48.5691 32 49.2712C32 49.9732 32.5691 50.5424 33.2712 50.5424H66.6398C67.3419 50.5424 67.911 49.9732 67.911 49.2712C67.911 48.5691 67.3419 48 66.6398 48Z" fill="#18BCEE"/>
<path d="M66.6398 56H33.2712C32.5691 56 32 56.5691 32 57.2712C32 57.9732 32.5691 58.5424 33.2712 58.5424H66.6398C67.3419 58.5424 67.911 57.9732 67.911 57.2712C67.911 56.5691 67.3419 56 66.6398 56Z" fill="#18BCEE"/>
<path d="M66.6398 65H33.2712C32.5691 65 32 65.5691 32 66.2712C32 66.9732 32.5691 67.5424 33.2712 67.5424H66.6398C67.3419 67.5424 67.911 66.9732 67.911 66.2712C67.911 65.5691 67.3419 65 66.6398 65Z" fill="#18BCEE"/>
<path d="M66.6398 73H33.2712C32.5691 73 32 73.5691 32 74.2712C32 74.9732 32.5691 75.5424 33.2712 75.5424H66.6398C67.3419 75.5424 67.911 74.9732 67.911 74.2712C67.911 73.5691 67.3419 73 66.6398 73Z" fill="#18BCEE"/>
<path d="M66.6398 31H53.2712C52.5691 31 52 31.5691 52 32.2712C52 32.9732 52.5691 33.5424 53.2712 33.5424H66.6398C67.3419 33.5424 67.911 32.9732 67.911 32.2712C67.911 31.5691 67.3419 31 66.6398 31Z" fill="#18BCEE"/>
</svg>
