<?xml version="1.0" encoding="UTF-8"?>
<svg width="500px" height="500px" viewBox="0 0 500 500" version="1.1" xmlns="http://www.w3.org/2000/svg" xmlns:xlink="http://www.w3.org/1999/xlink">
    <!-- Generator: Sketch 64 (93537) - https://sketch.com -->
    <title>Artboard</title>
    <desc>Created with Sketch.</desc>
    <defs>
        <circle id="path-1" cx="250" cy="249" r="250"></circle>
    </defs>
    <g id="Artboard" stroke="none" stroke-width="1" fill="none" fill-rule="evenodd">
        <rect fill="#FFFFFF" x="0" y="0" width="500" height="500"></rect>
        <g id="Bug" transform="translate(0.000000, 1.000000)">
            <mask id="mask-2" fill="white">
                <use xlink:href="#path-1"></use>
            </mask>
            <use id="Mask" fill="#FFFFFF" xlink:href="#path-1"></use>
            <g id="Group" opacity="0.498098028" mask="url(#mask-2)" fill="#18BCEE" fill-rule="nonzero">
                <g transform="translate(-61.622754, -1.000000)" id="Path">
                    <path d="M23.0073699,162.121533 C17.9881391,173.855591 12.9689083,185.589648 9.62275449,199 C84.911216,170.503003 297.391985,101.77495 531.622754,91.7171863 C531.622754,91.7171863 529.949678,90.0408923 529.949678,90.0408923 C289.026601,88.3645983 98.2958314,138.653417 23.0073699,162.121533 Z"></path>
                    <path d="M533.875117,92 C434.626255,100.401639 234.446346,132.327869 0.622754491,243.229508 C0.622754491,244.909836 0.622754491,246.590164 0.622754491,248.270492 C0.622754491,265.07377 2.3049386,281.877049 7.35149093,297 C46.0417254,268.434426 237.810714,137.368852 533.875117,92 C535.557301,93.6803279 533.875117,93.6803279 533.875117,92 Z"></path>
                    <path d="M129.622754,444.540179 C149.704387,456.258929 173.132959,466.303571 196.56153,473 C223.33704,417.754464 357.214591,163.290179 539.622754,99.6741071 C539.622754,99.6741071 539.622754,99.6741071 537.949285,98 C471.01051,119.763393 308.683979,195.098214 129.622754,444.540179 Z"></path>
                    <path d="M540.611581,112 C500.388118,133.741379 367.985883,220.706897 302.622754,500 C468.544542,500 602.622754,392.965517 602.622754,259.172414 C602.622754,203.982759 579.159067,152.137931 540.611581,112 Z"></path>
                    <path d="M534.622754,97.2587413 C534.622754,95.5804196 534.622754,95.5804196 534.622754,97.2587413 C459.37441,110.685315 236.973748,167.748252 29.6227545,350.685315 C39.6558671,367.468531 51.3611651,382.573427 64.7386485,396 C108.21547,345.65035 287.139311,154.321678 534.622754,97.2587413 Z"></path>
                    <path d="M526.622754,83.7083333 C471.319306,32.4583333 390.877927,0 300.381375,0 C189.774479,0 92.5744786,49.5416667 40.6227545,123 C233.346892,78.5833333 462.939996,82 526.622754,83.7083333 Z"></path>
                </g>
            </g>
        </g>
    </g>
</svg>