<svg width="40" height="35" viewBox="0 0 40 35" fill="none" xmlns="http://www.w3.org/2000/svg">
<path opacity="0.6" fill-rule="evenodd" clip-rule="evenodd" d="M9.73922 11.36C10.9792 9.52 12.7992 8.16001 15.1992 7.28001V0.320007C13.1192 0.960011 11.1792 1.8 9.37922 2.84001C7.57921 3.88001 5.99923 5.14 4.63922 6.62001C3.27921 8.10001 2.19922 9.8 1.39922 11.72C0.599215 13.64 0.199219 15.72 0.199219 17.96V34.16H15.1992V17.96H7.87922C7.87922 15.4 8.49921 13.2 9.73922 11.36ZM33.6192 11.36C34.8592 9.52 36.6792 8.16001 39.0792 7.28001V0.320007C36.9992 0.960011 35.0592 1.8 33.2592 2.84001C31.4592 3.88001 29.8792 5.14 28.5192 6.62001C27.1592 8.10001 26.0792 9.8 25.2792 11.72C24.4792 13.64 24.0792 15.72 24.0792 17.96V34.16H39.0792V17.96H31.7592C31.7592 15.4 32.3792 13.2 33.6192 11.36Z" fill="white"/>
</svg>
