<svg width="40" height="35" viewBox="0 0 40 35" fill="none" xmlns="http://www.w3.org/2000/svg">
<path opacity="0.6" fill-rule="evenodd" clip-rule="evenodd" d="M29.5401 23.12C28.3001 24.96 26.4801 26.32 24.0801 27.2V34.16C26.1601 33.52 28.1001 32.68 29.9001 31.64C31.7001 30.6 33.2801 29.34 34.6401 27.86C36.0001 26.38 37.0801 24.68 37.8801 22.76C38.6801 20.84 39.0801 18.76 39.0801 16.52L39.0801 0.320034H24.0801L24.0801 16.52L31.4001 16.52C31.4001 19.08 30.7801 21.28 29.5401 23.12ZM5.66008 23.12C4.42007 24.96 2.60009 26.32 0.200081 27.2V34.16C2.28009 33.52 4.22007 32.68 6.02008 31.64C7.82009 30.6 9.40007 29.34 10.7601 27.86C12.1201 26.38 13.2001 24.68 14.0001 22.76C14.8001 20.84 15.2001 18.76 15.2001 16.52V0.320034L0.200081 0.320034L0.200081 16.52H7.52008C7.52008 19.08 6.90009 21.28 5.66008 23.12Z" fill="white"/>
</svg>
