<svg width="37" height="37" viewBox="0 0 37 37" fill="none" xmlns="http://www.w3.org/2000/svg">
<path d="M27.3388 9.66116C26.895 9.21737 26.1755 9.21739 25.7318 9.66116L18.5 16.893L11.2682 9.66118C10.8244 9.21739 10.1049 9.21739 9.66115 9.66118C9.21736 10.105 9.21736 10.8244 9.66115 11.2682L16.8929 18.5L9.66115 25.7318C9.2174 26.1755 9.21736 26.8951 9.66115 27.3388C10.1049 27.7826 10.8245 27.7826 11.2682 27.3388L18.5 20.1071L25.7318 27.3388C26.1755 27.7826 26.895 27.7826 27.3388 27.3388C27.7826 26.8951 27.7826 26.1756 27.3388 25.7318L20.107 18.5L27.3388 11.2682C27.7826 10.8244 27.7826 10.105 27.3388 9.66116Z" fill="#0073D1"/>
</svg>
