<svg width="25" height="25" viewBox="0 0 25 25" fill="none" xmlns="http://www.w3.org/2000/svg">
<path d="M12.5 0C11.8724 0 11.3636 0.508773 11.3636 1.13636V11.3637H1.13636C0.50875 11.3637 0 11.8724 0 12.5C0 13.1276 0.50875 13.6364 1.13636 13.6364H11.3636V23.8637C11.3636 24.4912 11.8724 25 12.5 25C13.1276 25 13.6364 24.4912 13.6364 23.8637V13.6364H23.8636C24.4912 13.6364 25 13.1276 25 12.5C25 11.8724 24.4912 11.3637 23.8636 11.3637H13.6364V1.13636C13.6364 0.508773 13.1276 0 12.5 0Z" fill="#0073D1"/>
</svg>
